<svg width="96" height="134" viewBox="0 0 96 134" fill="none" xmlns="http://www.w3.org/2000/svg">
<path d="M95.5445 58.026C85.3671 46.5536 70.5879 39.12 53.9519 38.5959C49.5974 38.4561 45.3438 38.8005 41.2365 39.5793C39.6168 39.8839 38.4613 38.0417 39.4705 36.7487C47.6598 26.2049 51.9034 13.115 51.4442 -0.134615C51.3836 -1.92686 49.007 -2.53592 48.0786 -0.988302C42.8865 7.62845 35.338 15.0021 25.7459 20.0843C25.7358 20.0843 25.7308 20.0943 25.7207 20.0993C24.4996 20.7433 23.0313 19.8197 23.0767 18.4518C23.3542 8.68683 26.1597 -1.13308 31.7403 -10.0294C34.2935 -14.0981 37.2756 -17.7376 40.6008 -20.9326C41.8874 -22.1657 40.7471 -24.3075 38.9911 -23.963C23.8588 -20.9726 9.96266 -12.0313 1.18802 1.96715C-1.10783 5.62653 -2.93441 9.45065 -4.31191 13.3547C-4.85181 14.8973 -7.04676 14.9622 -7.67749 13.4545C-12.804 1.1584 -22.1538 -9.02595 -33.9913 -15.2614C-35.5858 -16.1001 -37.2862 -14.3528 -36.4082 -12.7952C-31.4583 -4.03861 -28.774 6.12077 -29.1221 16.8792V16.9092C-29.1675 18.2821 -30.7116 19.0709 -31.8923 18.352C-40.2935 13.2298 -47.4888 5.91609 -52.4892 -3.31473C-54.775 -7.53324 -56.4704 -11.9115 -57.6006 -16.3547C-58.0396 -18.077 -60.4868 -18.1669 -61.062 -16.4895C-66.017 -2.0317 -65.139 14.3431 -57.2726 28.8658C-55.2139 32.665 -52.7819 36.1396 -50.0471 39.2748C-48.9622 40.5229 -50.0218 42.42 -51.6667 42.2003C-64.9927 40.458 -78.5659 43.3785 -89.9391 50.3977C-91.468 51.3413 -90.7919 53.6727 -88.9905 53.6976C-78.8485 53.8324 -68.6156 56.6181 -59.3717 62.2894C-59.3616 62.2894 -59.3515 62.3044 -59.3464 62.3094C-58.1657 63.0283 -58.2465 64.7456 -59.4625 65.3996C-68.1464 70.0425 -78.1471 72.5487 -88.7231 72.2142C-93.552 72.0644 -98.2193 71.3305 -102.67 70.0824C-104.411 69.5932 -105.733 71.6301 -104.547 72.973C-94.3643 84.4454 -79.5902 91.8739 -62.9491 92.4031C-58.5946 92.5379 -54.3461 92.1935 -50.2338 91.4196C-48.6141 91.1151 -47.4586 92.9623 -48.4677 94.2553C-56.6571 104.794 -60.8955 117.889 -60.4363 131.139C-60.3758 132.931 -58.0042 133.535 -57.0708 131.992C-51.8837 123.376 -44.3301 116.002 -34.7431 110.92C-34.733 110.92 -34.723 110.91 -34.7129 110.9C-33.4918 110.256 -32.0285 111.179 -32.0689 112.552C-32.3464 122.317 -35.1569 132.137 -40.7375 141.033C-43.2907 145.102 -46.2728 148.742 -49.598 151.937C-50.8796 153.17 -49.7443 155.311 -47.9883 154.962C-32.856 151.977 -18.9599 143.035 -10.1852 129.037C-7.8894 125.372 -6.05775 121.553 -4.6853 117.649C-4.1454 116.107 -1.95045 116.042 -1.31973 117.549C3.81184 129.846 13.1617 140.03 24.9991 146.26C26.5885 147.099 28.289 145.352 27.411 143.799C22.4611 135.043 19.7818 124.883 20.1249 114.125C20.1249 114.115 20.1249 114.105 20.1249 114.095C20.1653 112.722 21.7093 111.933 22.89 112.647C31.2963 117.769 38.4866 125.088 43.4869 134.314C45.7777 138.537 47.4731 142.916 48.6034 147.359C49.0424 149.081 51.4845 149.171 52.0648 147.493C57.0147 133.031 56.1367 116.656 48.2703 102.138C46.2117 98.334 43.7796 94.8594 41.0499 91.7292C39.9599 90.4811 41.0195 88.584 42.6695 88.7987C55.9904 90.546 69.5687 87.6255 80.9369 80.6013C82.4657 79.6627 81.7896 77.3263 79.9883 77.3063C69.8512 77.1666 59.6133 74.3858 50.3745 68.7096L50.3442 68.6946C49.1685 67.9707 49.2442 66.2533 50.4653 65.6043C59.1441 60.9615 69.1449 58.4553 79.7259 58.7898C84.5547 58.9396 89.2221 59.6734 93.6725 60.9215C95.4083 61.4058 96.7353 59.3739 95.5445 58.031V58.026ZM-4.50366 91.9089C-19.2475 91.9089 -31.201 80.0821 -31.201 65.4945C-31.201 50.9069 -19.2475 39.0801 -4.50366 39.0801C10.2402 39.0801 22.1937 50.9069 22.1937 65.4945C22.1937 80.0821 10.2402 91.9089 -4.50366 91.9089Z" fill="#B4025D"/>
</svg>
