<svg width="101" height="134" viewBox="0 0 101 134" fill="none" xmlns="http://www.w3.org/2000/svg">
<path d="M0.455505 58.026C10.6329 46.5536 25.4121 39.12 42.0481 38.5959C46.4026 38.4561 50.6562 38.8005 54.7635 39.5793C56.3832 39.8839 57.5387 38.0417 56.5295 36.7487C48.3402 26.2049 44.0966 13.115 44.5558 -0.134615C44.6164 -1.92686 46.993 -2.53592 47.9214 -0.988302C53.1135 7.62845 60.662 15.0021 70.2541 20.0843C70.2642 20.0843 70.2692 20.0943 70.2793 20.0993C71.5004 20.7433 72.9687 19.8197 72.9233 18.4518C72.6458 8.68683 69.8403 -1.13308 64.2597 -10.0294C61.7065 -14.0981 58.7244 -17.7376 55.3992 -20.9326C54.1126 -22.1657 55.2529 -24.3075 57.0089 -23.963C72.1412 -20.9726 86.0373 -12.0313 94.812 1.96715C97.1078 5.62653 98.9344 9.45065 100.312 13.3547C100.852 14.8973 103.047 14.9622 103.677 13.4545C108.804 1.1584 118.154 -9.02595 129.991 -15.2614C131.586 -16.1001 133.286 -14.3528 132.408 -12.7952C127.458 -4.03861 124.774 6.12077 125.122 16.8792V16.9092C125.168 18.2821 126.712 19.0709 127.892 18.352C136.294 13.2298 143.489 5.91609 148.489 -3.31473C150.775 -7.53324 152.47 -11.9115 153.601 -16.3547C154.04 -18.077 156.487 -18.1669 157.062 -16.4895C162.017 -2.0317 161.139 14.3431 153.273 28.8658C151.214 32.665 148.782 36.1396 146.047 39.2748C144.962 40.5229 146.022 42.42 147.667 42.2003C160.993 40.458 174.566 43.3785 185.939 50.3977C187.468 51.3413 186.792 53.6727 184.991 53.6976C174.848 53.8324 164.616 56.6181 155.372 62.2894C155.362 62.2894 155.351 62.3044 155.346 62.3094C154.166 63.0283 154.247 64.7456 155.463 65.3996C164.146 70.0425 174.147 72.5487 184.723 72.2142C189.552 72.0644 194.219 71.3305 198.67 70.0824C200.411 69.5932 201.733 71.6301 200.547 72.973C190.364 84.4454 175.59 91.8739 158.949 92.4031C154.595 92.5379 150.346 92.1935 146.234 91.4196C144.614 91.1151 143.459 92.9623 144.468 94.2553C152.657 104.794 156.896 117.889 156.436 131.139C156.376 132.931 154.004 133.535 153.071 131.992C147.884 123.376 140.33 116.002 130.743 110.92C130.733 110.92 130.723 110.91 130.713 110.9C129.492 110.256 128.029 111.179 128.069 112.552C128.346 122.317 131.157 132.137 136.738 141.033C139.291 145.102 142.273 148.742 145.598 151.937C146.88 153.17 145.744 155.311 143.988 154.962C128.856 151.977 114.96 143.035 106.185 129.037C103.889 125.372 102.058 121.553 100.685 117.649C100.145 116.107 97.9505 116.042 97.3197 117.549C92.1882 129.846 82.8383 140.03 71.0009 146.26C69.4115 147.099 67.711 145.352 68.589 143.799C73.5389 135.043 76.2182 124.883 75.8751 114.125C75.8751 114.115 75.8751 114.105 75.8751 114.095C75.8347 112.722 74.2907 111.933 73.11 112.647C64.7037 117.769 57.5134 125.088 52.5131 134.314C50.2223 138.537 48.5269 142.916 47.3966 147.359C46.9576 149.081 44.5155 149.171 43.9352 147.493C38.9853 133.031 39.8633 116.656 47.7297 102.138C49.7883 98.334 52.2204 94.8594 54.9501 91.7292C56.0401 90.4811 54.9805 88.584 53.3305 88.7987C40.0096 90.546 26.4313 87.6255 15.0631 80.6013C13.5343 79.6627 14.2104 77.3263 16.0117 77.3063C26.1488 77.1666 36.3867 74.3858 45.6255 68.7096L45.6558 68.6946C46.8315 67.9707 46.7558 66.2533 45.5347 65.6043C36.8559 60.9615 26.8551 58.4553 16.2741 58.7898C11.4453 58.9396 6.77788 59.6734 2.32748 60.9215C0.591721 61.4058 -0.735306 59.3739 0.455505 58.031V58.026ZM100.504 91.9089C115.247 91.9089 127.201 80.0821 127.201 65.4945C127.201 50.9069 115.247 39.0801 100.504 39.0801C85.7598 39.0801 73.8063 50.9069 73.8063 65.4945C73.8063 80.0821 85.7598 91.9089 100.504 91.9089Z" fill="#B4025D"/>
</svg>
